<svg preserveAspectRatio="none" width="100%" height="100%" overflow="visible" style="display: block;" viewBox="0 0 491.429 284.335" fill="none" xmlns="http://www.w3.org/2000/svg">
<g id="Group">
<path id="Vector" d="M0 283.861V0H490.964V283.861H0ZM111.848 98.1153V66.1276H97.9627V99.1618C94.664 91.8165 89.9845 86.2285 81.9104 84.6686C73.9323 83.1285 67.0281 84.9055 61.6582 92.5668V66.1671H47.8306V140.687H61.4089V133.716C66.6829 142.069 73.9898 143.076 81.8721 141.654C90.3105 140.134 94.6448 133.776 98.0777 126.292V140.608H112.059V135.533C118.982 144.3 133.155 145.485 143.549 134.625C143.722 135.77 143.914 136.757 144.01 137.764C144.221 139.995 145.122 140.963 147.577 140.884C154.232 140.667 160.887 140.805 167.541 140.805H171.837C171.837 139.719 171.837 138.949 171.837 138.159C171.837 128.997 171.761 119.835 171.895 110.693C171.933 108.106 172.298 105.421 173.103 102.973C174.829 97.7598 179.509 95.4101 185.301 96.4566C189.616 97.2267 191.744 100.268 191.917 105.954C191.936 106.823 191.936 107.712 191.936 108.58C191.936 118.374 191.936 128.168 191.936 137.962C191.936 138.811 191.936 139.66 191.936 140.588H206.167C206.167 126.766 206.301 113.161 206.09 99.5567C206.013 95.2522 204.306 91.3426 200.873 88.4992C192.262 81.3514 179.01 83.0297 172.413 92.0732C172.202 92.3496 171.972 92.6063 171.339 93.3369V85.7743H157.818V134.941C157.262 133.084 157.089 131.209 157.089 129.333C157.051 119.46 157.128 109.587 156.993 99.7146C156.917 93.6528 154.155 89.3088 148.555 86.9591C142.38 84.3527 136.012 83.7011 129.434 84.5304C121.399 85.5571 115.108 88.9731 112.577 97.5426C112.538 97.6611 112.366 97.7204 111.848 98.135V98.1153ZM121.686 216.944C121.437 215.956 121.475 214.929 121.053 214.633C118.023 212.56 118.79 209.48 118.714 206.538C122.722 212.955 127.785 217.674 135.437 218.444C143.07 219.214 149.418 216.845 153.714 209.717C153.867 209.855 154.021 209.973 154.174 210.112V216.746H167.541V142.523H153.311V168.468C146.56 157.213 126.27 156.7 118.215 173.839C117.064 165.941 111.637 162.999 105.231 161.518C96.1599 159.425 87.2804 159.543 78.9762 165.131C78.8995 163.493 78.8227 162.031 78.746 160.471C74.9679 160.156 71.2857 160.333 68.3898 162.624C65.6664 164.776 63.4993 167.659 61.0061 170.285V161.873H47.8306V216.746H61.8116C61.8116 207.801 61.7541 199.034 61.85 190.287C61.8883 187.681 62.1376 185.015 62.7705 182.507C63.9788 177.749 68.6966 174.688 73.4145 175.32C73.2802 176.643 73.146 177.966 72.9925 179.585C77.0008 179.585 80.8556 179.526 84.7105 179.605C86.0146 179.625 86.6091 179.269 86.916 177.867C87.6064 174.688 89.5626 172.516 92.7654 172.24C95.3544 172.023 98.0202 172.161 100.59 172.615C103.256 173.089 104.426 174.905 104.522 177.512C104.618 180.118 103.141 181.54 100.954 182.152C98.7298 182.764 96.3901 183.001 94.1462 183.514C89.4859 184.561 84.6338 185.153 80.2228 186.891C73.8172 189.399 70.7679 195.816 71.3432 203.675C71.8802 210.882 75.6775 215.976 82.2557 217.773C88.5461 219.491 94.5489 218.701 99.9956 214.811C101.683 213.607 103.237 212.185 104.886 210.842C105.231 212.501 105.442 214.1 105.902 215.601C106.056 216.134 106.746 216.865 107.207 216.884C111.905 216.983 116.623 216.944 121.705 216.944H121.686ZM226.63 117.545C226.956 118.098 227.359 118.749 227.723 119.421C231.233 125.877 234.8 132.295 238.233 138.791C239.057 140.351 240.016 140.844 241.685 140.825C248.57 140.726 255.455 140.785 262.359 140.785C263.184 140.785 264.008 140.706 265.044 140.667C265.044 138.811 265.044 137.152 265.044 135.493C265.082 125.384 265.082 115.274 265.159 105.164C265.178 102.361 265.984 99.7936 268.458 98.1745C274.748 94.0477 281.537 97.5427 281.978 105.125C282.074 106.705 282.074 108.304 282.074 109.903C282.074 119.302 282.074 128.701 282.074 138.1C282.074 138.929 282.074 139.758 282.074 140.647H296.247V137.922C296.247 128.049 296.209 118.177 296.285 108.304C296.285 106.27 296.554 104.138 297.167 102.222C298.51 98.0363 302.307 95.963 306.795 96.6541C310.765 97.2662 312.855 99.8331 313.162 104.473C313.22 105.342 313.22 106.231 313.22 107.099C313.22 117.367 313.22 127.635 313.22 137.922V140.588H327.373C327.373 126.47 327.469 112.549 327.297 98.6286C327.258 94.9757 325.475 91.777 322.924 89.1311C315.617 81.5291 301.962 82.7928 295.691 91.6387C295.307 92.1719 294.904 92.6853 294.348 93.4356C291.587 86.5247 286.389 84.175 279.811 84.1552C273.195 84.1552 268.112 86.9393 264.737 93.0604C264.584 92.942 264.43 92.8235 264.296 92.6853V85.5177C263.203 85.5177 262.378 85.5177 261.534 85.5177C254.419 85.5966 247.304 85.7348 240.189 85.7348C238.616 85.7348 237.638 86.3075 236.66 87.4725C231.904 93.2381 227.052 98.9248 222.276 104.671C221.874 105.164 221.797 105.954 221.548 106.606C221.202 106.31 220.857 106.033 220.493 105.737V66.4435H207.03V140.588H220.646C220.646 135.316 220.627 130.221 220.665 125.127C220.665 124.377 220.723 123.389 221.164 122.916C222.852 121.06 224.693 119.381 226.591 117.525L226.63 117.545ZM377.735 218.227H442.942V151.152H377.735V218.227ZM392.982 99.221C391.563 89.8222 386.04 85.5769 377.793 84.4316C369.738 83.3062 363.026 85.5769 358.48 93.1789C358.346 93.0209 358.193 92.8827 358.059 92.7247V85.7941H344.806V140.588H358.615C358.615 130.676 358.538 120.961 358.653 111.246C358.691 108.659 358.979 105.974 359.689 103.486C361.242 98.1153 365.787 95.5484 371.541 96.3579C376.24 97.0293 378.388 99.8529 378.714 105.855C378.771 106.803 378.771 107.771 378.771 108.719C378.771 118.512 378.771 128.306 378.771 138.1C378.771 138.929 378.771 139.758 378.771 140.608H393.251V128.425C397.144 135.967 402.169 141.121 410.089 142.167C417.856 143.194 424.435 140.904 429.325 134.013V140.548H442.827V66.3645H428.654V92.0139C420.388 79.7915 400.078 81.6278 392.963 99.2013L392.982 99.221ZM182.922 202.707C183.076 202.687 183.21 202.668 183.364 202.648C183.69 203.339 184.016 204.05 184.342 204.741C187.909 212.145 193.547 216.983 201.545 218.168C205.63 218.78 209.887 218.78 214.01 218.365C221.643 217.575 227.474 213.587 231.405 206.735C234.148 201.957 235.433 196.803 235.797 191.314C236.986 173.681 226.572 160.866 210.156 159.82C197.479 159.01 189.117 164.006 183.613 175.656C183.517 175.873 183.325 176.051 182.827 176.742V161.873H168.846V216.726H182.922V202.687V202.707ZM318.264 201.483H367.207V151.132H318.264V201.483ZM276.532 150.638V182.843H307.831V150.638H276.532ZM329.08 85.6559V140.627H343.042V85.6559H329.08ZM343.119 65.7524H329.08V78.745H343.119V65.7524ZM168.807 141.97V154.982H182.769V141.97H168.807Z" fill="var(--fill-0, black)"/>
<path id="Vector_2" d="M0 283.861H490.964V0C491.118 0.0789819 491.405 0.157964 491.405 0.236946C491.444 0.868801 491.424 1.50066 491.424 2.15226V284.335C328.313 284.335 165.202 284.335 2.09043 284.335C1.40001 284.335 0.690418 284.039 0 283.881L0 283.861Z" fill="var(--fill-0, white)"/>
<path id="Vector_3" d="M111.848 98.1158C112.366 97.7012 112.538 97.6419 112.577 97.5235C115.128 88.9539 121.399 85.538 129.435 84.5112C136.013 83.6819 142.38 84.3335 148.555 86.9399C154.155 89.2896 156.898 93.6336 156.994 99.6955C157.128 109.568 157.051 119.441 157.09 129.314C157.09 131.19 157.262 133.065 157.818 134.921V85.7552H171.339V93.3177C171.972 92.5871 172.202 92.3304 172.413 92.054C179.03 83.0105 192.263 81.3322 200.874 88.48C204.307 91.3234 206.013 95.2527 206.09 99.5375C206.301 113.142 206.167 126.747 206.167 140.569H191.937C191.937 139.641 191.937 138.792 191.937 137.942C191.937 128.149 191.937 118.355 191.937 108.561C191.937 107.692 191.937 106.804 191.917 105.935C191.745 100.248 189.635 97.2075 185.301 96.4375C179.509 95.3909 174.83 97.7407 173.103 102.953C172.298 105.382 171.934 108.087 171.895 110.674C171.761 119.836 171.838 128.998 171.838 138.14C171.838 138.93 171.838 139.7 171.838 140.786H167.542C160.887 140.786 154.232 140.648 147.577 140.865C145.122 140.944 144.24 139.976 144.01 137.745C143.914 136.738 143.722 135.751 143.55 134.605C133.136 145.465 118.982 144.281 112.059 135.514V140.588H98.078V126.273C94.6451 133.756 90.3108 140.114 81.8724 141.635C73.9709 143.057 66.6832 142.05 61.4092 133.697V140.667H47.8309V66.1479H61.6585V92.5476C67.0284 84.9061 73.9517 83.1093 81.9107 84.6494C89.9848 86.2093 94.6643 91.7973 97.963 99.1426V66.1084H111.848V98.0961V98.1158ZM60.7187 113.754C61.4859 116.854 61.9845 120.329 63.1927 123.548C64.9763 128.326 68.812 130.34 73.6833 130.281C78.5162 130.202 81.6614 127.497 83.3299 123.035C85.6889 116.696 85.5738 110.22 83.2724 103.901C81.5272 99.1228 78.0175 96.9113 72.9737 96.9508C68.0065 96.9903 64.3434 99.3006 62.7708 104.039C61.7735 107.001 61.4475 110.2 60.7379 113.774L60.7187 113.754ZM112.117 116.203C113.306 114.919 114.13 113.853 115.128 113.004C118.81 109.785 123.355 108.778 127.958 108.008C131.832 107.337 135.763 106.863 139.599 105.994C141.766 105.501 143.243 103.96 143.109 101.354C142.994 98.7872 141.958 97.1088 139.407 96.5757C137.029 96.082 134.517 95.9438 132.081 96.0228C128.687 96.1413 126.404 98.0961 125.618 101.492C125.234 103.092 124.525 103.447 123.087 103.408C119.481 103.309 115.856 103.368 112.136 103.368V116.222L112.117 116.203ZM143.243 114.564C139.292 115.472 135.706 116.262 132.158 117.17C130.451 117.605 128.706 118.098 127.171 118.947C124.371 120.507 123.719 123.232 124.065 126.293C124.371 129.037 125.887 130.755 128.418 131.565C134.363 133.46 141.536 129.235 142.648 122.975C143.147 120.191 143.089 117.308 143.262 114.544L143.243 114.564Z" fill="var(--fill-0, white)"/>
<path id="Vector_4" d="M121.686 216.944C116.604 216.944 111.886 216.983 107.187 216.885C106.727 216.885 106.037 216.134 105.883 215.601C105.692 214.949 105.538 214.298 105.404 213.627C105.155 212.363 103.678 211.849 102.7 212.659C101.798 213.409 100.916 214.14 99.9764 214.811C94.549 218.701 88.527 219.491 82.2365 217.773C75.6776 215.976 71.8611 210.882 71.3241 203.675C70.7487 195.816 73.7789 189.399 80.2036 186.891C84.6338 185.173 89.4667 184.561 94.1271 183.515C96.3901 183.001 98.7107 182.784 100.935 182.152C103.122 181.54 104.598 180.118 104.503 177.512C104.407 174.906 103.237 173.109 100.571 172.615C98.0202 172.161 95.3353 172.003 92.7462 172.24C89.5435 172.516 87.6064 174.688 86.8969 177.867C86.59 179.25 85.9763 179.625 84.6913 179.605C81.4502 179.546 78.1899 179.566 74.8529 179.566C73.8556 179.566 73.0693 178.677 73.1652 177.67L73.2227 177.157C73.3186 176.11 72.5131 175.182 71.4967 175.261C67.4692 175.557 63.8062 178.381 62.7514 182.508C62.1185 185.015 61.8692 187.681 61.8308 190.287C61.7349 198.482 61.7733 206.676 61.7925 215.009C61.7925 215.956 61.0445 216.746 60.1048 216.746H49.48C48.5595 216.746 47.8115 215.976 47.8115 215.028V163.611C47.8115 162.663 48.5595 161.893 49.48 161.893H59.2993C60.2199 161.893 60.9678 162.663 60.9678 163.611V165.902C60.9678 167.481 62.8473 168.232 63.8829 167.067C65.3021 165.467 66.7405 163.927 68.3514 162.644C70.8638 160.649 73.9515 160.255 77.1735 160.393C78.0365 160.432 78.7461 161.143 78.7844 162.032V162.308C78.8611 163.572 80.1653 164.322 81.2584 163.73C88.8914 159.563 96.9846 159.623 105.193 161.518C110.448 162.742 115.051 164.934 117.16 170.048C117.678 171.312 119.327 171.549 120.094 170.404C127.977 158.458 142.782 157.944 150.511 165.072C151.566 166.06 153.273 165.23 153.273 163.769V144.241C153.273 143.293 154.021 142.523 154.941 142.523H165.815C166.736 142.523 167.484 143.293 167.484 144.241V215.009C167.484 215.956 166.736 216.727 165.815 216.727H155.804C154.884 216.727 154.136 215.956 154.136 215.009C152.467 214.318 152.372 214.278 150.684 213.587C146.637 217.694 141.421 219.037 135.38 218.425C127.708 217.655 122.645 212.916 118.656 206.518C118.733 209.46 117.966 212.56 120.996 214.614C121.418 214.91 121.379 215.937 121.629 216.924L121.686 216.944ZM129.511 189.28C129.473 189.478 129.453 189.695 129.473 189.892C129.952 193.861 130.489 197.593 132.388 200.989C136.262 207.94 146.273 208.394 150.761 201.858C154.788 195.974 154.961 184.147 151.029 178.183C148.555 174.432 145.045 172.753 140.692 173.069C136.434 173.385 133.308 175.616 131.889 179.743C130.815 182.824 130.278 186.082 129.511 189.28ZM104.541 192.914C104.579 191.768 103.544 190.919 102.47 191.176C99.8038 191.828 97.3298 192.4 94.8558 193.071C92.7846 193.624 90.6174 194.079 88.6996 195.046C85.7462 196.547 85.0941 199.39 85.4585 202.549C85.7653 205.333 87.3763 207.012 89.8695 207.782C95.9682 209.658 103.064 205.254 104.1 198.817C104.407 196.863 104.464 194.868 104.541 192.914Z" fill="var(--fill-0, white)"/>
<path id="Vector_5" d="M226.63 117.545C224.731 119.401 222.89 121.079 221.202 122.935C220.761 123.409 220.723 124.397 220.704 125.147C220.665 130.241 220.685 135.316 220.685 140.608H207.068V66.4634H220.531V105.757C220.876 106.053 221.222 106.329 221.586 106.626C221.816 105.974 221.893 105.184 222.315 104.691C227.09 98.9447 231.942 93.258 236.699 87.4923C237.677 86.3076 238.655 85.7349 240.227 85.7547C247.342 85.7547 254.458 85.6362 261.573 85.5375C262.417 85.5375 263.241 85.5375 264.334 85.5375V92.7051C264.488 92.8236 264.641 92.942 264.776 93.0803C268.151 86.9789 273.233 84.1553 279.85 84.175C286.428 84.175 291.625 86.5445 294.387 93.4554C294.943 92.7051 295.346 92.1917 295.729 91.6586C302.001 82.8126 315.656 81.5489 322.962 89.1509C325.513 91.7968 327.297 94.9956 327.335 98.6485C327.508 112.569 327.412 126.49 327.412 140.608H313.258V137.942C313.258 127.674 313.258 117.407 313.258 107.119C313.258 106.25 313.258 105.362 313.201 104.493C312.894 99.853 310.803 97.286 306.834 96.6739C302.346 95.9828 298.529 98.0561 297.206 102.242C296.592 104.177 296.343 106.29 296.324 108.324C296.228 118.197 296.285 128.069 296.285 137.942V140.667H282.113C282.113 139.778 282.113 138.949 282.113 138.12C282.113 128.721 282.113 119.322 282.113 109.923C282.113 108.324 282.113 106.744 282.017 105.145C281.576 97.5625 274.787 94.0675 268.496 98.1943C266.022 99.8135 265.217 102.38 265.197 105.184C265.121 115.294 265.121 125.404 265.082 135.513C265.082 137.172 265.082 138.811 265.082 140.687C264.047 140.726 263.222 140.805 262.397 140.805C255.512 140.805 248.627 140.746 241.723 140.845C240.055 140.864 239.077 140.371 238.271 138.811C234.838 132.315 231.29 125.877 227.761 119.44C227.397 118.769 226.994 118.118 226.668 117.565L226.63 117.545ZM250.603 130.873V91.3821C245.808 96.7924 241.301 101.867 236.814 106.942C241.416 114.919 245.885 122.679 250.603 130.873Z" fill="var(--fill-0, white)"/>
<path id="Vector_6" d="M377.735 218.228V151.152H442.941V218.228H377.735Z" fill="var(--fill-0, white)"/>
<path id="Vector_7" d="M392.983 99.2211C400.098 81.6674 420.389 79.8113 428.674 92.0338V66.3844H442.846V140.568H429.345V134.032C424.454 140.924 417.876 143.234 410.109 142.187C402.188 141.141 397.164 135.987 393.271 128.444V140.627H378.791C378.791 139.798 378.791 138.949 378.791 138.12C378.791 128.326 378.791 118.532 378.791 108.738C378.791 107.791 378.791 106.823 378.733 105.875C378.407 99.8727 376.259 97.0294 371.561 96.3778C365.788 95.5682 361.243 98.1351 359.709 103.506C358.999 105.974 358.692 108.659 358.673 111.266C358.558 120.981 358.635 130.676 358.635 140.608H344.826V85.814H358.078V92.7446C358.213 92.9026 358.366 93.0408 358.5 93.1988C363.046 85.577 369.739 83.3063 377.813 84.4515C386.04 85.6165 391.583 89.842 393.002 99.2409L392.983 99.2211ZM429.172 113.576C429.076 109.824 428.674 105.796 426.449 102.262C423.956 98.2734 420.331 96.595 415.748 96.9899C411.528 97.3453 408.671 99.6753 407.117 103.585C404.375 110.555 404.221 117.644 407.482 124.416C411.202 132.157 421.904 132.433 426.411 125.127C428.52 121.711 429.115 117.9 429.153 113.596L429.172 113.576Z" fill="var(--fill-0, white)"/>
<path id="Vector_8" d="M182.923 202.707V216.746H168.846V161.893H182.827V176.762C183.326 176.071 183.498 175.893 183.613 175.676C189.118 164.006 197.46 159.03 210.156 159.84C226.592 160.886 236.987 173.701 235.798 191.334C235.433 196.823 234.148 201.977 231.406 206.755C227.455 213.626 221.625 217.615 214.011 218.385C209.888 218.8 205.63 218.8 201.545 218.188C193.548 217.003 187.909 212.165 184.342 204.761C184.016 204.07 183.69 203.359 183.364 202.668C183.211 202.687 183.076 202.707 182.923 202.727V202.707ZM221.606 189.261C220.8 185.785 220.378 182.271 219.17 179.072C217.329 174.214 213.474 171.983 208.411 171.964C203.348 171.944 199.493 174.116 197.518 178.914C194.679 185.805 194.718 192.894 197.556 199.785C199.551 204.583 203.463 206.735 208.507 206.696C213.551 206.637 217.406 204.366 219.208 199.489C220.397 196.27 220.819 192.775 221.606 189.28V189.261Z" fill="var(--fill-0, white)"/>
<path id="Vector_9" d="M318.264 201.484V151.133H367.207V201.484H318.264Z" fill="var(--fill-0, white)"/>
<path id="Vector_10" d="M276.531 150.639H307.83V182.844H276.531V150.639Z" fill="var(--fill-0, white)"/>
<path id="Vector_11" d="M329.08 85.6548H343.042V140.626H329.08V85.6548Z" fill="var(--fill-0, white)"/>
<path id="Vector_12" d="M343.119 65.7534V78.746H329.08V65.7534H343.119Z" fill="var(--fill-0, white)"/>
<path id="Vector_13" d="M168.807 141.97H182.769V154.983H168.807V141.97Z" fill="var(--fill-0, white)"/>
<path id="Vector_14" d="M62.6367 121.89C61.0258 116.598 60.9107 110.872 62.3107 105.521C62.4449 105.007 62.5984 104.514 62.7518 104.02C64.3436 99.2811 67.9875 96.9709 72.9546 96.9314C77.9794 96.8919 81.5082 99.1034 83.2534 103.882C85.5548 110.2 85.689 116.657 83.3109 123.015C81.6424 127.478 78.4972 130.203 73.6642 130.262C68.8121 130.341 64.9573 128.307 63.1737 123.529C62.9628 122.976 62.7902 122.423 62.6176 121.87L62.6367 121.89Z" fill="var(--fill-0, black)"/>
<path id="Vector_15" d="M112.116 116.203V103.349C115.836 103.349 119.461 103.29 123.067 103.388C124.524 103.428 125.234 103.073 125.598 101.473C126.384 98.0967 128.667 96.1221 132.061 96.0036C134.497 95.9247 137.009 96.0629 139.387 96.5565C141.957 97.0897 142.974 98.7878 143.089 101.335C143.204 103.941 141.746 105.481 139.579 105.975C135.743 106.844 131.831 107.318 127.938 107.989C123.335 108.779 118.79 109.766 115.108 112.985C114.11 113.854 113.286 114.9 112.097 116.184L112.116 116.203Z" fill="var(--fill-0, black)"/>
<path id="Vector_16" d="M143.242 114.563C143.051 117.327 143.108 120.21 142.629 122.994C141.516 129.253 134.344 133.479 128.398 131.583C125.867 130.774 124.352 129.056 124.045 126.311C123.7 123.251 124.352 120.526 127.152 118.966C128.686 118.117 130.431 117.623 132.138 117.189C135.686 116.281 139.292 115.491 143.223 114.582L143.242 114.563Z" fill="var(--fill-0, black)"/>
<path id="Vector_17" d="M130.719 196.942C129.568 192.914 129.626 188.629 130.547 184.561C130.911 182.942 131.333 181.323 131.87 179.763C133.289 175.656 136.415 173.425 140.673 173.089C145.045 172.754 148.555 174.452 151.01 178.203C154.941 184.167 154.788 195.994 150.741 201.878C146.254 208.414 136.242 207.96 132.368 201.009C131.64 199.706 131.103 198.344 130.7 196.942H130.719Z" fill="var(--fill-0, black)"/>
<path id="Vector_18" d="M104.637 190.644C104.484 193.289 104.541 196.093 104.1 198.798C103.065 205.216 95.9687 209.639 89.87 207.763C87.3768 206.993 85.7658 205.314 85.459 202.53C85.1138 199.371 85.7466 196.528 88.7001 195.027C90.5988 194.059 92.7659 193.605 94.8563 193.052C97.9632 192.223 101.108 191.493 104.637 190.644Z" fill="var(--fill-0, black)"/>
<path id="Vector_19" d="M250.603 130.874C245.885 122.679 241.417 114.919 236.814 106.942C241.302 101.868 245.828 96.793 250.603 91.3827V130.874Z" fill="var(--fill-0, black)"/>
<path id="Vector_20" d="M429.172 113.576C429.114 117.881 428.52 121.692 426.429 125.108C421.922 132.414 411.221 132.137 407.5 124.397C404.24 117.624 404.393 110.536 407.136 103.565C408.689 99.6361 411.547 97.3259 415.766 96.9705C420.33 96.5756 423.955 98.2737 426.468 102.242C428.692 105.797 429.095 109.825 429.191 113.557L429.172 113.576Z" fill="var(--fill-0, black)"/>
<path id="Vector_21" d="M219.726 180.69C221.375 186.239 221.375 192.221 219.764 197.79C219.592 198.362 219.419 198.935 219.208 199.488C217.405 204.365 213.551 206.655 208.507 206.695C203.482 206.754 199.55 204.602 197.556 199.784C194.717 192.912 194.679 185.824 197.498 178.952C199.109 175.003 202.657 172.357 206.819 172.022C212.668 171.548 217.156 173.7 219.189 179.071C219.381 179.604 219.573 180.137 219.726 180.69Z" fill="var(--fill-0, black)"/>
</g>
</svg>
