<svg preserveAspectRatio="none" width="100%" height="100%" overflow="visible" style="display: block;" viewBox="0 0 386 223.335" fill="none" xmlns="http://www.w3.org/2000/svg">
<g id="Group">
<path id="Vector" d="M0 222.963V0H385.635V222.963H0ZM87.8524 77.066V51.9409H76.9462V77.888C74.3552 72.1185 70.6796 67.7294 64.3377 66.5042C58.0712 65.2944 52.6482 66.6903 48.4303 72.7079V51.9719H37.5693V110.504H48.2345V105.029C52.377 111.59 58.1164 112.381 64.3076 111.264C70.9357 110.07 74.3401 105.076 77.0366 99.1979V110.442H88.0181V106.456C93.4562 113.342 104.588 114.273 112.753 105.743C112.889 106.642 113.039 107.418 113.114 108.209C113.28 109.961 113.988 110.721 115.916 110.659C121.144 110.489 126.371 110.597 131.598 110.597H134.972C134.972 109.744 134.972 109.139 134.972 108.519C134.972 101.323 134.912 94.1263 135.017 86.9455C135.047 84.9138 135.334 82.8045 135.966 80.8813C137.322 76.7869 140.998 74.9412 145.547 75.7632C148.936 76.3681 150.608 78.7566 150.744 83.2233C150.759 83.9057 150.759 84.6036 150.759 85.286C150.759 92.9786 150.759 100.671 150.759 108.364C150.759 109.031 150.759 109.698 150.759 110.427H161.936C161.936 99.5701 162.042 88.8842 161.876 78.1982C161.816 74.8172 160.475 71.7463 157.779 69.513C151.015 63.8986 140.606 65.2169 135.424 72.3202C135.258 72.5373 135.078 72.7389 134.58 73.3128V67.3727H123.96V105.991C123.524 104.533 123.388 103.06 123.388 101.586C123.358 93.8317 123.418 86.077 123.313 78.3223C123.252 73.5609 121.083 70.1489 116.685 68.3032C111.834 66.256 106.833 65.7442 101.666 66.3956C95.3542 67.2021 90.4133 69.8852 88.4248 76.6163C88.3947 76.7093 88.2591 76.7558 87.8524 77.0815V77.066ZM95.5802 170.401C95.3843 169.626 95.4145 168.819 95.0831 168.587C92.703 166.958 93.3055 164.539 93.2453 162.228C96.3936 167.268 100.37 170.975 106.381 171.58C112.376 172.185 117.363 170.324 120.737 164.725C120.857 164.834 120.978 164.927 121.098 165.035V170.246H131.598V111.947H120.42V132.326C115.118 123.486 99.1804 123.082 92.8536 136.544C91.9498 130.341 87.6867 128.03 82.6554 126.867C75.5302 125.223 68.5556 125.316 62.033 129.705C61.9727 128.418 61.9124 127.27 61.8522 126.045C58.8846 125.796 55.9924 125.936 53.7177 127.735C51.5786 129.426 49.8764 131.69 47.9181 133.753V127.146H37.5693V170.246H48.5508C48.5508 163.221 48.5056 156.334 48.5809 149.464C48.6111 147.417 48.8069 145.323 49.304 143.353C50.253 139.615 53.9587 137.211 57.6644 137.708C57.559 138.747 57.4535 139.786 57.333 141.058C60.4814 141.058 63.5092 141.011 66.537 141.073C67.5614 141.089 68.0284 140.81 68.2694 139.708C68.8117 137.211 70.3482 135.505 72.8639 135.288C74.8975 135.118 76.9914 135.226 79.0099 135.583C81.1038 135.955 82.0227 137.382 82.098 139.429C82.1733 141.476 81.0134 142.593 79.2961 143.074C77.5487 143.555 75.7109 143.741 73.9485 144.144C70.288 144.966 66.4768 145.431 63.0121 146.796C57.9808 148.766 55.5856 153.806 56.0375 159.979C56.4593 165.64 59.442 169.641 64.6089 171.053C69.5498 172.402 74.2648 171.782 78.5429 168.726C79.8686 167.78 81.0887 166.664 82.3842 165.609C82.6554 166.912 82.8211 168.168 83.1826 169.347C83.3031 169.766 83.8454 170.339 84.207 170.355C87.8976 170.432 91.6033 170.401 95.5952 170.401H95.5802ZM178.01 92.3272C178.266 92.7615 178.582 93.2733 178.868 93.8006C181.625 98.8722 184.427 103.913 187.123 109.015C187.771 110.241 188.524 110.628 189.835 110.613C195.243 110.535 200.651 110.582 206.074 110.582C206.721 110.582 207.369 110.52 208.182 110.489C208.182 109.031 208.182 107.728 208.182 106.425C208.213 98.4845 208.213 90.5437 208.273 82.6029C208.288 80.4005 208.921 78.3843 210.864 77.1126C215.805 73.8711 221.137 76.6163 221.484 82.5719C221.559 83.8126 221.559 85.0689 221.559 86.3251C221.559 93.7076 221.559 101.09 221.559 108.472C221.559 109.124 221.559 109.775 221.559 110.473H232.691V108.333C232.691 100.578 232.661 92.8235 232.722 85.0689C232.722 83.4714 232.932 81.7964 233.414 80.292C234.469 77.004 237.452 75.3755 240.977 75.9183C244.095 76.3991 245.737 78.4153 245.978 82.06C246.023 82.7425 246.023 83.4404 246.023 84.1228C246.023 92.1877 246.023 100.253 246.023 108.333V110.427H257.14C257.14 99.3375 257.215 88.4034 257.08 77.4693C257.05 74.6 255.649 72.0875 253.645 70.0093C247.906 64.0382 237.18 65.0308 232.255 71.979C231.953 72.3977 231.637 72.801 231.2 73.3903C229.031 67.962 224.949 66.1164 219.782 66.1009C214.585 66.1009 210.593 68.2877 207.941 73.0956C207.821 73.0026 207.7 72.9095 207.595 72.801V67.1711C206.736 67.1711 206.089 67.1711 205.426 67.1711C199.837 67.2331 194.248 67.3417 188.66 67.3417C187.424 67.3417 186.656 67.7914 185.888 68.7065C182.152 73.2352 178.341 77.7019 174.59 82.2151C174.274 82.6029 174.213 83.2233 174.018 83.7351C173.747 83.5024 173.475 83.2853 173.189 83.0526V52.189H162.614V110.427H173.31C173.31 106.286 173.295 102.284 173.325 98.2828C173.325 97.6935 173.37 96.918 173.716 96.5458C175.042 95.0879 176.488 93.7696 177.979 92.3117L178.01 92.3272ZM296.698 171.409H347.915V118.724H296.698V171.409ZM308.673 77.9346C307.559 70.5521 303.22 67.2176 296.743 66.318C290.416 65.434 285.144 67.2176 281.574 73.1887C281.468 73.0646 281.348 72.956 281.242 72.832V67.3882H270.833V110.427H281.679C281.679 102.641 281.619 95.0104 281.709 87.3798C281.739 85.348 281.965 83.2388 282.523 81.2846C283.743 77.066 287.313 75.0498 291.832 75.6857C295.523 76.213 297.21 78.4309 297.466 83.1457C297.511 83.8902 297.511 84.6501 297.511 85.3946C297.511 93.0872 297.511 100.78 297.511 108.472C297.511 109.124 297.511 109.775 297.511 110.442H308.884V100.873C311.942 106.797 315.889 110.845 322.11 111.667C328.211 112.474 333.378 110.675 337.219 105.262V110.396H347.824V52.127H336.692V72.2736C330.2 62.6733 314.247 64.1157 308.658 77.9191L308.673 77.9346ZM143.679 159.219C143.8 159.204 143.905 159.188 144.026 159.173C144.282 159.715 144.538 160.274 144.794 160.817C147.596 166.633 152.024 170.432 158.306 171.363C161.515 171.844 164.859 171.844 168.098 171.518C174.093 170.898 178.672 167.765 181.76 162.383C183.915 158.63 184.924 154.582 185.21 150.27C186.144 136.42 177.964 126.355 165.07 125.533C155.113 124.897 148.545 128.821 144.221 137.971C144.146 138.142 143.995 138.281 143.604 138.824V127.146H132.622V170.231H143.679V159.204V159.219ZM249.985 158.258H288.428V118.709H249.985V158.258ZM217.206 118.321V143.617H241.79V118.321H217.206ZM258.481 67.2796V110.458H269.447V67.2796H258.481ZM269.507 51.6462H258.481V61.8513H269.507V51.6462ZM132.592 111.512V121.733H143.559V111.512H132.592Z" fill="var(--fill-0, black)"/>
<path id="Vector_2" d="M0 222.963H385.635V0C385.755 0.0620375 385.981 0.124075 385.981 0.186112C386.011 0.682412 385.996 1.17871 385.996 1.69052V223.335C257.878 223.335 129.76 223.335 1.64196 223.335C1.09966 223.335 0.542299 223.102 0 222.978L0 222.963Z" fill="var(--fill-0, white)"/>
<path id="Vector_3" d="M87.8526 77.0667C88.2593 76.741 88.3949 76.6945 88.425 76.6014C90.4285 69.8703 95.3544 67.1872 101.666 66.3807C106.833 65.7293 111.834 66.2411 116.685 68.2884C121.083 70.134 123.238 73.5461 123.313 78.3074C123.418 86.0621 123.358 93.8168 123.388 101.571C123.388 103.045 123.524 104.518 123.961 105.976V67.3578H134.581V73.2979C135.078 72.7241 135.259 72.5224 135.424 72.3053C140.621 65.202 151.015 63.8837 157.779 69.4981C160.475 71.7315 161.816 74.8178 161.876 78.1834C162.042 88.8693 161.937 99.5553 161.937 110.412H150.759C150.759 109.683 150.759 109.016 150.759 108.349C150.759 100.656 150.759 92.9638 150.759 85.2711C150.759 84.5887 150.759 83.8908 150.744 83.2084C150.609 78.7417 148.952 76.3532 145.547 75.7484C140.998 74.9264 137.322 76.772 135.967 80.8665C135.334 82.7741 135.048 84.8989 135.017 86.9306C134.912 94.127 134.972 101.323 134.972 108.504C134.972 109.125 134.972 109.729 134.972 110.582H131.598C126.371 110.582 121.144 110.474 115.917 110.644C113.988 110.706 113.295 109.947 113.115 108.194C113.039 107.403 112.889 106.628 112.753 105.728C104.573 114.258 93.4563 113.328 88.0183 106.441V110.427H77.0367V99.183C74.3403 105.061 70.9359 110.055 64.3078 111.249C58.1014 112.366 52.3772 111.575 48.2346 105.015V110.489H37.5694V51.957H48.4305V72.693C52.6483 66.6909 58.0864 65.2796 64.3379 66.4893C70.6798 67.7145 74.3554 72.1037 76.9463 77.8732V51.926H87.8526V77.0512V77.0667ZM47.6923 89.3501C48.2949 91.7851 48.6865 94.5147 49.6356 97.0427C51.0365 100.796 54.0493 102.378 57.8755 102.331C61.6716 102.269 64.1421 100.145 65.4526 96.6395C67.3055 91.661 67.2151 86.5739 65.4074 81.6109C64.0366 77.8577 61.2799 76.1206 57.3181 76.1516C53.4166 76.1826 50.5394 77.9972 49.3042 81.7195C48.5208 84.0459 48.2647 86.5584 47.7074 89.3656L47.6923 89.3501ZM88.0635 91.2733C88.9974 90.2652 89.6452 89.4276 90.4285 88.7607C93.3207 86.2327 96.8909 85.4417 100.506 84.8369C103.549 84.3096 106.637 83.9373 109.65 83.2549C111.352 82.8672 112.512 81.6575 112.407 79.6102C112.316 77.594 111.503 76.2757 109.499 75.8569C107.631 75.4692 105.658 75.3607 103.745 75.4227C101.079 75.5157 99.286 77.0512 98.6684 79.7188C98.3671 80.975 97.8098 81.2542 96.68 81.2232C93.848 81.1456 91.0009 81.1922 88.0785 81.1922V91.2888L88.0635 91.2733ZM112.512 89.986C109.409 90.6994 106.592 91.3198 103.805 92.0332C102.465 92.3744 101.094 92.7622 99.8886 93.4291C97.6893 94.6543 97.1771 96.7946 97.4482 99.1985C97.6893 101.354 98.8793 102.704 100.868 103.34C105.538 104.828 111.171 101.509 112.045 96.593C112.437 94.4062 112.392 92.1418 112.527 89.9705L112.512 89.986Z" fill="var(--fill-0, white)"/>
<path id="Vector_4" d="M95.5801 170.402C91.5882 170.402 87.8825 170.433 84.1919 170.355C83.8303 170.355 83.288 169.766 83.1675 169.347C83.0169 168.835 82.8964 168.324 82.7909 167.796C82.5951 166.804 81.4352 166.4 80.6669 167.036C79.9589 167.626 79.266 168.199 78.5279 168.727C74.2648 171.782 69.5347 172.402 64.5938 171.053C59.442 169.642 56.4442 165.64 56.0225 159.979C55.5705 153.807 57.9506 148.766 62.997 146.797C66.4768 145.447 70.2729 144.966 73.9334 144.144C75.7109 143.741 77.5336 143.571 79.2811 143.074C80.9983 142.593 82.1583 141.477 82.0829 139.43C82.0076 137.382 81.0887 135.971 78.9948 135.583C76.9913 135.227 74.8824 135.102 72.8488 135.289C70.3331 135.506 68.8117 137.212 68.2543 139.709C68.0133 140.794 67.5312 141.089 66.522 141.074C63.9762 141.027 61.4153 141.043 58.7942 141.043C58.0109 141.043 57.3933 140.345 57.4686 139.554L57.5138 139.15C57.5891 138.328 56.9564 137.599 56.158 137.662C52.9946 137.894 50.1174 140.112 49.2889 143.353C48.7918 145.323 48.596 147.417 48.5659 149.464C48.4905 155.901 48.5207 162.337 48.5357 168.882C48.5357 169.626 47.9482 170.247 47.2101 170.247H38.8647C38.1417 170.247 37.5542 169.642 37.5542 168.897V128.511C37.5542 127.767 38.1417 127.162 38.8647 127.162H46.5774C47.3005 127.162 47.888 127.767 47.888 128.511V130.31C47.888 131.551 49.3642 132.14 50.1777 131.225C51.2924 129.969 52.4222 128.759 53.6876 127.751C55.6609 126.185 58.0862 125.874 60.6169 125.983C61.2948 126.014 61.8522 126.572 61.8823 127.27V127.487C61.9426 128.48 62.9669 129.069 63.8255 128.604C69.8209 125.332 76.1779 125.378 82.6252 126.867C86.7527 127.829 90.3681 129.55 92.0251 133.567C92.4318 134.56 93.7273 134.746 94.3298 133.846C100.521 124.463 112.15 124.06 118.221 129.659C119.05 130.434 120.39 129.783 120.39 128.635V113.296C120.39 112.552 120.978 111.947 121.701 111.947H130.242C130.965 111.947 131.553 112.552 131.553 113.296V168.882C131.553 169.626 130.965 170.231 130.242 170.231H122.379C121.656 170.231 121.068 169.626 121.068 168.882C119.758 168.339 119.682 168.308 118.357 167.765C115.178 170.991 111.081 172.046 106.336 171.565C100.31 170.96 96.3333 167.238 93.2001 162.213C93.2603 164.524 92.6578 166.959 95.0378 168.572C95.3693 168.804 95.3391 169.611 95.535 170.386L95.5801 170.402ZM101.726 148.673C101.696 148.828 101.681 148.999 101.696 149.154C102.073 152.271 102.494 155.203 103.986 157.87C107.029 163.329 114.892 163.686 118.417 158.553C121.58 153.931 121.716 144.641 118.628 139.957C116.685 137.01 113.928 135.692 110.508 135.94C107.164 136.188 104.709 137.941 103.594 141.182C102.751 143.602 102.329 146.161 101.726 148.673ZM82.1131 151.527C82.1432 150.627 81.3297 149.96 80.4862 150.162C78.3923 150.674 76.449 151.124 74.5058 151.651C72.8789 152.085 71.1767 152.442 69.6703 153.202C67.3505 154.381 66.8383 156.614 67.1245 159.095C67.3655 161.282 68.6309 162.601 70.5892 163.205C75.3795 164.679 80.9531 161.22 81.7666 156.164C82.0076 154.629 82.0528 153.062 82.1131 151.527Z" fill="var(--fill-0, white)"/>
<path id="Vector_5" d="M178.01 92.3274C176.518 93.7852 175.072 95.1035 173.747 96.5614C173.4 96.9336 173.37 97.7091 173.355 98.2985C173.325 102.3 173.34 106.286 173.34 110.442H162.645V52.2046H173.219V83.0683C173.491 83.3009 173.762 83.518 174.048 83.7507C174.229 83.2389 174.289 82.6185 174.62 82.2308C178.371 77.7175 182.182 73.2508 185.918 68.7221C186.686 67.7915 187.455 67.3418 188.69 67.3573C194.279 67.3573 199.867 67.2642 205.456 67.1867C206.119 67.1867 206.767 67.1867 207.625 67.1867V72.8166C207.746 72.9096 207.866 73.0027 207.972 73.1113C210.623 68.3189 214.615 66.101 219.812 66.1165C224.979 66.1165 229.061 67.9777 231.23 73.4059C231.667 72.8166 231.983 72.4133 232.285 71.9946C237.211 65.0464 247.936 64.0538 253.675 70.0249C255.679 72.1031 257.08 74.6157 257.11 77.4849C257.246 88.419 257.17 99.3531 257.17 110.442H246.053V108.349C246.053 100.284 246.053 92.2188 246.053 84.1384C246.053 83.456 246.053 82.7581 246.008 82.0757C245.767 78.431 244.125 76.4147 241.007 75.934C237.482 75.3911 234.484 77.0196 233.445 80.3076C232.963 81.8275 232.767 83.487 232.752 85.0845C232.676 92.8392 232.722 100.594 232.722 108.349V110.489H221.589C221.589 109.791 221.589 109.14 221.589 108.488C221.589 101.106 221.589 93.7232 221.589 86.3407C221.589 85.0845 221.589 83.8437 221.514 82.5875C221.168 76.6319 215.835 73.8867 210.894 77.1282C208.951 78.3999 208.318 80.4162 208.303 82.6185C208.243 90.5593 208.243 98.5001 208.213 106.441C208.213 107.744 208.213 109.031 208.213 110.504C207.399 110.535 206.752 110.597 206.104 110.597C200.696 110.597 195.288 110.551 189.865 110.628C188.554 110.644 187.786 110.256 187.153 109.031C184.457 103.928 181.67 98.8723 178.898 93.8163C178.612 93.2889 178.296 92.7771 178.04 92.3429L178.01 92.3274ZM196.839 102.796V71.7774C193.074 76.027 189.534 80.0129 186.009 83.9988C189.624 90.2646 193.134 96.3598 196.839 102.796Z" fill="var(--fill-0, white)"/>
<path id="Vector_6" d="M296.698 171.41V118.725H347.915V171.41H296.698Z" fill="var(--fill-0, white)"/>
<path id="Vector_7" d="M308.674 77.9349C314.263 64.1471 330.2 62.6892 336.708 72.2895V52.1428H347.84V110.411H337.235V105.278C333.394 110.691 328.227 112.505 322.126 111.683C315.905 110.861 311.958 106.813 308.9 100.889V110.458H297.527C297.527 109.807 297.527 109.14 297.527 108.488C297.527 100.796 297.527 93.103 297.527 85.4104C297.527 84.6659 297.527 83.906 297.481 83.1615C297.225 78.4467 295.538 76.2133 291.848 75.7015C287.313 75.0656 283.743 77.0819 282.538 81.3004C281.981 83.2391 281.74 85.3483 281.725 87.3956C281.634 95.0262 281.695 102.641 281.695 110.443H270.849V67.404H281.258V72.8478C281.363 72.9719 281.484 73.0804 281.589 73.2045C285.159 67.2179 290.416 65.4343 296.758 66.3339C303.221 67.2489 307.574 70.5679 308.689 77.9504L308.674 77.9349ZM337.099 89.2102C337.024 86.2634 336.708 83.0995 334.96 80.3233C333.002 77.1904 330.155 75.8721 326.555 76.1823C323.241 76.4615 320.996 78.2916 319.776 81.3624C317.622 86.8372 317.501 92.4051 320.062 97.7248C322.985 103.804 331.39 104.022 334.93 98.2832C336.587 95.6 337.054 92.6067 337.084 89.2257L337.099 89.2102Z" fill="var(--fill-0, white)"/>
<path id="Vector_8" d="M143.679 159.219V170.247H132.622V127.162H143.604V138.84C143.996 138.297 144.131 138.158 144.222 137.987C148.545 128.821 155.098 124.913 165.07 125.549C177.98 126.371 186.144 136.436 185.21 150.286C184.924 154.598 183.915 158.646 181.761 162.399C178.658 167.796 174.078 170.929 168.098 171.534C164.859 171.86 161.515 171.86 158.306 171.379C152.025 170.448 147.596 166.648 144.794 160.832C144.538 160.29 144.282 159.731 144.026 159.188C143.905 159.204 143.8 159.219 143.679 159.235V159.219ZM174.063 148.658C173.43 145.928 173.099 143.167 172.15 140.655C170.704 136.839 167.676 135.087 163.699 135.071C159.722 135.056 156.694 136.762 155.143 140.531C152.913 145.943 152.944 151.511 155.173 156.924C156.74 160.693 159.813 162.383 163.775 162.352C167.736 162.306 170.764 160.522 172.18 156.691C173.114 154.163 173.446 151.418 174.063 148.673V148.658Z" fill="var(--fill-0, white)"/>
<path id="Vector_9" d="M249.985 158.259V118.71H288.428V158.259H249.985Z" fill="var(--fill-0, white)"/>
<path id="Vector_10" d="M217.205 118.322H241.789V143.617H217.205V118.322Z" fill="var(--fill-0, white)"/>
<path id="Vector_11" d="M258.481 67.2789H269.447V110.457H258.481V67.2789Z" fill="var(--fill-0, white)"/>
<path id="Vector_12" d="M269.508 51.6469V61.8521H258.481V51.6469H269.508Z" fill="var(--fill-0, white)"/>
<path id="Vector_13" d="M132.592 111.512H143.558V121.733H132.592V111.512Z" fill="var(--fill-0, white)"/>
<path id="Vector_14" d="M49.1988 95.7398C47.9335 91.5833 47.8431 87.0856 48.9428 82.8825C49.0482 82.4793 49.1687 82.0916 49.2892 81.7038C50.5395 77.9816 53.4017 76.167 57.3032 76.136C61.2499 76.105 64.0217 77.842 65.3925 81.5953C67.2002 86.5583 67.3056 91.6298 65.4377 96.6238C64.1271 100.129 61.6567 102.269 57.8606 102.316C54.0494 102.378 51.0216 100.78 49.6206 97.0271C49.4549 96.5928 49.3194 96.1586 49.1838 95.7243L49.1988 95.7398Z" fill="var(--fill-0, black)"/>
<path id="Vector_15" d="M88.0629 91.2735V81.1769C90.9853 81.1769 93.8324 81.1304 96.6644 81.2079C97.8092 81.2389 98.3666 80.9598 98.6528 79.7035C99.2704 77.0514 101.063 75.5005 103.729 75.4074C105.642 75.3454 107.616 75.454 109.484 75.8417C111.502 76.2604 112.301 77.5942 112.391 79.595C112.481 81.6422 111.337 82.8519 109.634 83.2397C106.622 83.9221 103.549 84.2943 100.491 84.8216C96.8753 85.442 93.3051 86.2175 90.4129 88.7455C89.6296 89.4279 88.9818 90.2499 88.0479 91.258L88.0629 91.2735Z" fill="var(--fill-0, black)"/>
<path id="Vector_16" d="M112.512 89.9849C112.361 92.1563 112.406 94.4206 112.03 96.6074C111.156 101.524 105.522 104.843 100.852 103.354C98.8639 102.718 97.6738 101.369 97.4328 99.213C97.1616 96.8091 97.6738 94.6688 99.8731 93.4435C101.078 92.7766 102.449 92.3889 103.79 92.0477C106.577 91.3343 109.409 90.7139 112.497 90.0005L112.512 89.9849Z" fill="var(--fill-0, black)"/>
<path id="Vector_17" d="M102.675 154.691C101.771 151.527 101.817 148.161 102.54 144.967C102.826 143.695 103.157 142.423 103.579 141.198C104.694 137.972 107.149 136.219 110.493 135.956C113.928 135.692 116.685 137.026 118.613 139.973C121.701 144.656 121.58 153.946 118.402 158.568C114.877 163.702 107.014 163.345 103.971 157.886C103.398 156.862 102.976 155.792 102.66 154.691H102.675Z" fill="var(--fill-0, black)"/>
<path id="Vector_18" d="M82.1888 149.744C82.0683 151.822 82.1135 154.024 81.7671 156.149C80.9536 161.19 75.38 164.664 70.5897 163.19C68.6314 162.585 67.366 161.267 67.125 159.08C66.8538 156.599 67.3509 154.365 69.6708 153.187C71.1621 152.427 72.8643 152.07 74.5063 151.636C76.9466 150.984 79.4171 150.411 82.1888 149.744Z" fill="var(--fill-0, black)"/>
<path id="Vector_19" d="M196.84 102.797C193.134 96.3602 189.624 90.265 186.009 83.9992C189.534 80.0133 193.089 76.0274 196.84 71.7779V102.797Z" fill="var(--fill-0, black)"/>
<path id="Vector_20" d="M337.099 89.2103C337.054 92.5913 336.587 95.5846 334.945 98.2677C331.405 104.006 322.999 103.789 320.077 97.7094C317.516 92.3897 317.636 86.8218 319.791 81.347C321.011 78.2607 323.255 76.4461 326.569 76.1669C330.154 75.8567 333.002 77.1905 334.975 80.3079C336.722 83.0996 337.039 86.2635 337.114 89.1948L337.099 89.2103Z" fill="var(--fill-0, black)"/>
<path id="Vector_21" d="M172.587 141.926C173.882 146.284 173.882 150.983 172.617 155.357C172.481 155.806 172.346 156.256 172.18 156.69C170.764 160.521 167.736 162.32 163.774 162.351C159.828 162.398 156.74 160.707 155.173 156.923C152.943 151.526 152.913 145.958 155.128 140.561C156.393 137.459 159.18 135.381 162.449 135.117C167.043 134.745 170.568 136.435 172.165 140.654C172.316 141.073 172.466 141.491 172.587 141.926Z" fill="var(--fill-0, black)"/>
</g>
</svg>
